<?xml version="1.0" encoding="UTF-8" standalone="no"?>
<svg
   xmlns:dc="http://purl.org/dc/elements/1.1/"
   xmlns:cc="http://creativecommons.org/ns#"
   xmlns:rdf="http://www.w3.org/1999/02/22-rdf-syntax-ns#"
   xmlns:svg="http://www.w3.org/2000/svg"
   xmlns="http://www.w3.org/2000/svg"
   xmlns:sodipodi="http://sodipodi.sourceforge.net/DTD/sodipodi-0.dtd"
   xmlns:inkscape="http://www.inkscape.org/namespaces/inkscape"
   width="21.008621mm"
   height="28.762676mm"
   viewBox="0 0 21.008621 28.762676"
   version="1.1"
   id="svg8"
   sodipodi:docname="blue_red.svg"
   inkscape:version="1.0.2-2 (e86c870879, 2021-01-15)">
  <defs
     id="defs2">
    <clipPath
       clipPathUnits="userSpaceOnUse"
       id="clipPath26">
      <path
         d="M 0,214.901 H 214.901 V 0 H 0 Z"
         id="path24" />
    </clipPath>
  </defs>
  <sodipodi:namedview
     id="base"
     pagecolor="#ffffff"
     bordercolor="#666666"
     borderopacity="1.0"
     inkscape:pageopacity="0.0"
     inkscape:pageshadow="2"
     inkscape:zoom="3.959798"
     inkscape:cx="-19.37988"
     inkscape:cy="27.375617"
     inkscape:document-units="mm"
     inkscape:current-layer="g22"
     inkscape:document-rotation="0"
     showgrid="false"
     inkscape:window-width="1920"
     inkscape:window-height="1017"
     inkscape:window-x="-8"
     inkscape:window-y="-1"
     inkscape:window-maximized="1"
     fit-margin-top="0"
     fit-margin-left="0"
     fit-margin-right="0"
     fit-margin-bottom="0" />
  <metadata
     id="metadata5">
    <rdf:RDF>
      <cc:Work
         rdf:about="">
        <dc:format>image/svg+xml</dc:format>
        <dc:type
           rdf:resource="http://purl.org/dc/dcmitype/StillImage" />
        <dc:title></dc:title>
      </cc:Work>
    </rdf:RDF>
  </metadata>
  <g
     inkscape:label="Layer 1"
     inkscape:groupmode="layer"
     id="layer1"
     transform="translate(-80.021953,-74.69292)">
    <g
       id="g22"
       clip-path="url(#clipPath26)"
       transform="matrix(0.35277777,0,0,-0.35277777,45.308867,104.57034)">
      <g
         id="g68"
         transform="translate(128.1753,84.6919)">
        <path
           d="m 0,0 c -16.419,0 -29.776,-13.357 -29.776,-29.776 0,-14.662 21.366,-41.489 25.649,-46.718 L 0,-81.532 l 4.127,5.038 c 4.283,5.229 25.649,32.056 25.649,46.718 C 29.776,-13.357 16.419,0 0,0"
           style="fill:#002b49;fill-opacity:1;fill-rule:nonzero;stroke:none"
           id="path70" />
      </g>
      <g
         id="g88"
         transform="translate(137.0278,55.7124)">
        <path
           d="m 0,0 c 0,-4.891 -3.965,-8.855 -8.855,-8.855 -4.89,0 -8.855,3.964 -8.855,8.855 0,4.89 3.965,8.855 8.855,8.855 C -3.965,8.855 0,4.89 0,0"
           style="fill:#002b49;fill-opacity:1;fill-rule:nonzero;stroke:none"
           id="path90" />
      </g>
      <path
         style="fill:#f8485e;fill-opacity:1;stroke-width:0.0892857"
         d="M 38.851571,96.344587 C 32.57994,88.50444 25.520171,78.676816 20.620865,70.966349 13.032272,59.023519 8.7777438,49.974742 7.4601028,42.975278 7.2142278,41.669161 7.1255621,38.545006 7.2845979,36.791326 8.1973828,26.726102 13.731179,17.673489 22.31279,12.207043 26.304794,9.6641555 30.850252,8.0392728 35.814813,7.3804218 c 1.464904,-0.1944087 5.941912,-0.2239831 7.366071,-0.048659 5.177547,0.6373923 9.789704,2.2546155 13.903809,4.8752802 8.632154,5.498642 14.105412,14.489408 15.032096,24.692799 0.151048,1.663132 0.06301,4.706405 -0.17419,6.021053 -1.666932,9.238938 -9.226971,23.316685 -22.115847,41.182496 -3.157677,4.376989 -9.852441,13.13044 -10.113396,13.223342 -0.03259,0.0116 -0.420395,-0.430366 -0.861785,-0.982146 z m 2.632885,-46.000683 c 2.237395,-0.343759 4.101339,-1.1931 5.887384,-2.682697 2.052984,-1.712231 3.504691,-4.239057 3.997209,-6.957499 0.196694,-1.085648 0.193765,-3.047566 -0.0062,-4.15351 -0.776246,-4.29317 -3.837931,-7.817274 -7.951186,-9.152088 -1.399237,-0.454075 -1.983686,-0.538903 -3.712917,-0.538903 -1.72923,0 -2.313679,0.08483 -3.712917,0.538903 -4.039895,1.311008 -7.01339,4.660567 -7.904784,8.904519 -0.247007,1.176008 -0.271802,3.206705 -0.05374,4.401079 0.816873,4.474157 4.094116,8.107677 8.412512,9.327059 1.560729,0.4407 3.450777,0.558022 5.044643,0.313137 z"
         id="path903"
         transform="matrix(0.75000002,0,0,-0.75000002,98.399301,84.691901)" />
    </g>
  </g>
</svg>
